<?xml version="1.0" encoding="UTF-8"?>
<!DOCTYPE svg PUBLIC "-//W3C//DTD SVG 1.1//EN" "http://www.w3.org/Graphics/SVG/1.1/DTD/svg11.dtd">
<!-- Creator: CorelDRAW X7 -->
<svg xmlns="http://www.w3.org/2000/svg" xml:space="preserve" width="517px" height="57px" version="1.1" style="shape-rendering:geometricPrecision; text-rendering:geometricPrecision; image-rendering:optimizeQuality; fill-rule:evenodd; clip-rule:evenodd"
viewBox="0 0 51700 5700"
 xmlns:xlink="http://www.w3.org/1999/xlink">
 <defs>
  <style type="text/css">
   <![CDATA[
    .fil0 {fill:white}
   ]]>
  </style>
 </defs>
 <g id="Слой_x0020_1">
  <metadata id="CorelCorpID_0Corel-Layer"/>
  <polygon class="fil0" points="31722,0 32022,0 32022,5700 31722,5700 "/>
  <path class="fil0" d="M26824 923l962 3017 1013 -3017 1198 0 0 3862 -782 0 0 -2903 -1012 2903 -846 0 -955 -2903 0 2903 -782 0 0 -3862 1204 0zm-3677 625c-170,0 -321,24 -445,75 -128,47 -228,119 -308,214 -85,104 -148,242 -191,409 -42,167 -63,368 -63,599 0,299 34,548 106,742 71,194 180,339 331,432 148,93 339,141 570,141 231,0 416,-45 565,-138 145,-93 257,-236 326,-430 71,-191 106,-437 106,-737 0,-299 -35,-546 -106,-742 -72,-194 -181,-337 -326,-430 -149,-92 -334,-140 -565,-137l0 0 0 2zm-5 -655c440,0 798,75 1081,221 281,145 491,368 623,668 135,299 202,673 202,1126 0,305 -37,573 -114,806 -74,234 -188,430 -340,591 -159,167 -355,295 -585,377 -234,85 -502,127 -809,127 -438,0 -803,-74 -1095,-225 -292,-149 -509,-366 -652,-655 -146,-289 -218,-639 -218,-1055 0,-448 67,-817 202,-1111 135,-292 342,-512 623,-655 281,-143 641,-215 1082,-215l0 0 0 0zm-2283 3203l0 689 -1344 0c-424,0 -766,-66 -1031,-201 -266,-135 -459,-345 -581,-629 -125,-283 -183,-646 -183,-1092 0,-315 35,-594 106,-832 69,-239 175,-438 318,-597 151,-169 345,-299 578,-384 233,-85 512,-127 830,-127l1310 0 0 689 -1212 0c-178,0 -326,21 -453,61 -128,40 -228,101 -305,177 -175,181 -260,494 -260,939 0,241 19,445 58,612 40,170 96,303 175,401 157,196 430,294 817,294l1182 0 -5 0zm-4541 689l0 -3862 821 0 0 3862 -821 0zm-406 -3862l-1691 3862 -822 0 -1628 -3862 928 0 1135 2908 1153 -2908 928 0 -3 0zm-5369 3862l0 -3862 822 0 0 3862 -822 0zm-3128 -3862l822 0 0 2166c0,212 11,381 32,514 21,130 53,223 95,273 61,72 167,127 318,164 152,37 348,56 592,56l787 0 0 689 -787 0c-369,0 -676,-32 -926,-95 -249,-64 -440,-157 -570,-281 -243,-239 -365,-679 -365,-1320l0 -2166 2 0z"/>
  <path class="fil0" d="M3780 2381l0 1394 -1333 0c-281,0 -512,-273 -512,-554l0 -1294 1352 0c281,0 496,173 496,454l-3 0z"/>
  <path class="fil0" d="M1493 3425c0,419 328,878 747,878l1981 0 0 -2126c0,-419 -311,-687 -729,-687l-1997 0 0 1938 -2 -3zm-1496 -2160c0,-703 570,-1273 1273,-1273l3171 0c702,0 1272,570 1272,1273l0 3170c0,703 -570,1273 -1272,1273l-3171 0c-703,0 -1273,-570 -1273,-1273l0 -3170z"/>
  <path class="fil0" d="M3780 2381l0 1394 -1333 0c-281,0 -512,-273 -512,-554l0 -1294 1352 0c281,0 496,173 496,454l-3 0z"/>
  <path class="fil0" d="M1493 3425c0,419 328,878 747,878l1981 0 0 -2126c0,-419 -311,-687 -729,-687l-1997 0 0 1938 -2 -3zm-1496 -2160c0,-703 570,-1273 1273,-1273l3171 0c702,0 1272,570 1272,1273l0 3170c0,703 -570,1273 -1272,1273l-3171 0c-703,0 -1273,-570 -1273,-1273l0 -3170z"/>
  <path class="fil0" d="M35435 2380l-443 0 -162 -478 -664 0 -159 478 -432 0 672 -1817 532 0 656 1817zm-700 -770l-230 -683 -11 0 -230 683 471 0zm2472 -1047l0 1319c0,351 -263,526 -790,526 -524,0 -786,-175 -786,-526l0 -1319 436 0 0 1319c0,82 28,139 82,169 54,31 145,47 274,47 127,0 217,-16 269,-47 52,-30 78,-87 78,-169l0 -1319 437 0zm1800 311l-557 0 0 1506 -437 0 0 -1506 -560 0 0 -311 1554 0 0 311zm1899 1506l-437 0 0 -778 -773 0 0 778 -437 0 0 -1817 437 0 0 728 773 0 0 -728 437 0 0 1817zm2077 -1293l0 795c0,103 -27,190 -81,263 -54,73 -127,128 -218,164 -92,36 -183,62 -275,77 -91,15 -188,22 -291,22 -97,0 -188,-6 -273,-18 -85,-12 -175,-35 -271,-68 -96,-34 -173,-88 -230,-163 -57,-74 -85,-167 -85,-277l0 -795c0,-93 21,-176 63,-247 42,-70 92,-125 151,-162 59,-37 130,-68 214,-91 84,-23 159,-38 224,-43 65,-6 134,-9 207,-9 75,0 145,3 212,9 66,5 141,20 225,43 84,23 156,54 216,91 59,37 110,91 151,161 41,70 61,153 61,248zm-436 795l0 -798c0,-88 -36,-149 -108,-185 -72,-35 -178,-53 -318,-53 -142,0 -248,17 -319,52 -71,34 -107,96 -107,186l0 798c0,47 13,85 37,116 24,31 59,53 105,66 46,13 89,22 131,27 42,4 94,7 156,7 61,0 113,-3 155,-7 42,-5 86,-14 130,-27 45,-13 79,-35 103,-66 23,-31 35,-69 35,-116zm2408 498l-504 0 -476 -714 -202 0 0 714 -437 0 0 -1817 818 0c239,0 413,29 523,87 111,58 166,157 166,297l0 319c0,110 -40,195 -119,255 -80,60 -178,97 -296,112l527 747zm-541 -1201l0 -129c0,-67 -20,-113 -60,-138 -40,-25 -109,-38 -206,-38l-375 0 0 504 375 0c103,0 173,-13 210,-41 38,-27 56,-79 56,-158zm1229 1201l-436 0 0 -1817 436 0 0 1817zm1809 0l-1501 0 0 -266 947 -1240 -919 0 0 -311 1456 0 0 263 -946 1241 963 0 0 313zm1711 0l-1414 0 0 -1817 1386 0 0 311 -949 0 0 417 857 0 0 311 -857 0 0 468 977 0 0 310zm1929 -1265l0 739c0,205 -63,344 -190,417 -127,73 -350,109 -669,109l-776 0 0 -1817 773 0c308,0 529,39 662,115 134,77 200,222 200,437zm-437 739l0 -748c0,-87 -35,-148 -106,-182 -71,-33 -178,-50 -322,-50l-333 0 0 1196 319 0c168,0 284,-13 347,-38 64,-25 95,-85 95,-178zm-15254 2164l0 739c0,205 -63,344 -190,417 -127,73 -350,109 -670,109l-775 0 0 -1817 773 0c308,0 528,39 662,115 133,77 200,222 200,437zm-437 739l0 -748c0,-87 -35,-148 -106,-182 -71,-33 -178,-50 -322,-50l-333 0 0 1196 319 0c168,0 284,-13 347,-38 63,-25 95,-85 95,-178zm1227 526l-437 0 0 -1817 437 0 0 1817zm1786 -638l0 120c0,109 -20,200 -59,274 -39,73 -97,129 -173,168 -77,38 -160,65 -251,81 -91,16 -198,24 -323,24 -174,0 -389,-17 -644,-51l0 -333c309,48 526,73 649,73 243,0 364,-63 364,-188l0 -117c0,-55 -16,-99 -47,-133 -32,-35 -96,-52 -191,-52l-213 0c-399,0 -599,-159 -599,-476l0 -135c0,-157 66,-273 198,-348 131,-76 342,-114 631,-114 140,0 329,12 568,37l0 325c-283,-34 -477,-51 -582,-51 -144,0 -243,12 -297,37 -54,24 -81,65 -81,123l0 129c0,95 80,142 241,142l218 0c213,0 365,39 455,118 91,78 136,194 136,347zm1716 -868l-557 0 0 1506 -437 0 0 -1506 -560 0 0 -311 1554 0 0 311zm1871 1506l-504 0 -476 -713 -202 0 0 713 -437 0 0 -1817 818 0c239,0 413,29 524,87 110,58 165,157 165,297l0 319c0,110 -40,195 -119,255 -80,60 -178,97 -296,112l527 747zm-541 -1201l0 -129c0,-67 -20,-113 -60,-138 -40,-25 -109,-38 -206,-38l-375 0 0 504 375 0c103,0 173,-13 210,-41 38,-27 56,-79 56,-158zm1230 1201l-437 0 0 -1817 437 0 0 1817zm1870 -686l0 280c0,152 -61,257 -182,317 -121,60 -301,89 -540,89l-756 0 0 -1817 736 0c258,0 432,29 524,87 91,58 137,159 137,302l0 224c0,53 -21,101 -62,146 -41,45 -87,75 -140,90l0 14c67,7 131,37 192,89 61,53 91,112 91,179zm-501 -574l0 -89c0,-60 -14,-101 -42,-123 -28,-23 -97,-34 -207,-34l-292 0 0 428 300 0c103,0 168,-13 197,-39 29,-26 44,-73 44,-143zm64 796l0 -146c0,-67 -17,-115 -52,-143 -34,-28 -95,-42 -183,-42l-370 0 0 485 311 0c107,0 182,-12 227,-37 45,-24 67,-63 67,-117zm2307 -1353l0 1319c0,351 -263,527 -789,527 -525,0 -787,-176 -787,-527l0 -1319 437 0 0 1319c0,82 27,139 81,170 54,30 146,46 274,46 127,0 217,-16 269,-46 53,-31 79,-88 79,-170l0 -1319 436 0zm1801 311l-557 0 0 1506 -437 0 0 -1506 -560 0 0 -311 1554 0 0 311zm1937 213l0 795c0,103 -27,190 -81,263 -54,73 -127,128 -218,164 -92,36 -183,62 -275,77 -91,15 -188,23 -291,23 -97,0 -188,-7 -273,-19 -85,-12 -175,-35 -271,-68 -96,-34 -173,-88 -230,-163 -57,-74 -85,-167 -85,-277l0 -795c0,-93 21,-176 63,-247 42,-70 92,-125 151,-162 59,-37 130,-68 214,-91 84,-23 159,-38 224,-43 65,-6 134,-9 207,-9 75,0 145,3 212,9 66,5 141,20 225,43 84,23 156,54 216,91 59,37 110,91 151,161 41,70 61,153 61,248zm-436 795l0 -798c0,-88 -36,-149 -108,-185 -72,-35 -178,-53 -318,-53 -142,0 -248,17 -319,52 -71,34 -107,96 -107,186l0 798c0,47 13,85 37,116 24,31 59,53 105,66 46,13 89,22 131,27 42,4 94,7 156,7 61,0 113,-3 155,-7 42,-5 86,-14 130,-27 45,-13 79,-35 103,-66 23,-31 35,-69 35,-116zm2408 498l-504 0 -476 -713 -202 0 0 713 -437 0 0 -1817 818 0c239,0 413,29 523,87 111,58 166,157 166,297l0 319c0,110 -40,195 -119,255 -80,60 -178,97 -296,112l527 747zm-541 -1201l0 -129c0,-67 -20,-113 -60,-138 -40,-25 -109,-38 -206,-38l-375 0 0 504 375 0c103,0 173,-13 210,-41 38,-27 56,-79 56,-158z"/>
 </g>
</svg>
